HIERARCHY
ROOT Hips
{
	OFFSET 0.000000 0.000000 0.000000
	CHANNELS 6 Xposition Yposition Zposition Zrotation Yrotation Xrotation 
	JOINT LowerBack
	{
		OFFSET 0.000000 0.000000 0.000000
		CHANNELS 3 Zrotation Yrotation Xrotation
		JOINT Spine
		{
			OFFSET 0.028270 2.035590 -0.193380
			CHANNELS 3 Zrotation Yrotation Xrotation
			JOINT Spine1
			{
				OFFSET 0.056720 2.048850 -0.042750
				CHANNELS 3 Zrotation Yrotation Xrotation
				JOINT Neck
				{
					OFFSET 0.000000 0.000000 0.000000
					CHANNELS 3 Zrotation Yrotation Xrotation
					JOINT Neck1
					{
						OFFSET -0.054170 1.746240 0.172020
						CHANNELS 3 Zrotation Yrotation Xrotation
						JOINT Head
						{
							OFFSET 0.104070 1.761360 -0.123970
							CHANNELS 3 Zrotation Yrotation Xrotation
							End Site
							{
								OFFSET 0.000000 0.000000 0.000000
							}
						}
					}
				}
				JOINT LeftShoulder
				{
					OFFSET 0.000000 0.000000 0.000000
					CHANNELS 3 Zrotation Yrotation Xrotation
					JOINT LeftArm
					{
						OFFSET 3.362410 1.200890 -0.311210
						CHANNELS 3 Zrotation Yrotation Xrotation
						JOINT LeftForeArm
						{
							OFFSET 4.983000 -0.000000 -0.000000
							CHANNELS 3 Zrotation Yrotation Xrotation
							JOINT LeftHand
							{
								OFFSET 3.483560 -0.000000 -0.000000
								CHANNELS 3 Zrotation Yrotation Xrotation
								JOINT LeftFingerBase
								{
									OFFSET 0.000000 0.000000 0.000000
									CHANNELS 3 Zrotation Yrotation Xrotation
									JOINT LeftHandIndex1
									{
										OFFSET 0.715260 -0.000000 -0.000000
										CHANNELS 3 Zrotation Yrotation Xrotation
										End Site
										{
											OFFSET 0.000000 0.000000 0.000000
										}
									}
								}
								JOINT LThumb
								{
									OFFSET 0.000000 0.000000 0.000000
									CHANNELS 3 Zrotation Yrotation Xrotation
									End Site
									{
										OFFSET 0.000000 0.000000 0.000000
									}
								}
							}
						}
					}
				}
				JOINT RightShoulder
				{
					OFFSET 0.000000 0.000000 0.000000
					CHANNELS 3 Zrotation Yrotation Xrotation
					JOINT RightArm
					{
						OFFSET -3.136600 1.374050 -0.404650
						CHANNELS 3 Zrotation Yrotation Xrotation
						JOINT RightForeArm
						{
							OFFSET -5.241900 -0.000000 -0.000000
							CHANNELS 3 Zrotation Yrotation Xrotation
							JOINT RightHand
							{
								OFFSET -3.444170 -0.000000 -0.000000
								CHANNELS 3 Zrotation Yrotation Xrotation
								JOINT RightFingerBase
								{
									OFFSET 0.000000 0.000000 0.000000
									CHANNELS 3 Zrotation Yrotation Xrotation
									JOINT RightHandIndex1
									{
										OFFSET -0.622530 -0.000000 -0.000000
										CHANNELS 3 Zrotation Yrotation Xrotation
										End Site
										{
											OFFSET 0.000000 0.000000 0.000000
										}
									}
								}
								JOINT RThumb
								{
									OFFSET 0.000000 0.000000 0.000000
									CHANNELS 3 Zrotation Yrotation Xrotation
									End Site
									{
										OFFSET 0.000000 0.000000 0.000000
									}
								}
							}
						}
					}
				}
			}
		}
	}
}
}
MOTION
Frames: 7
Frame Time: 0.008333
-2.227824 15.804310 -0.541580 -47.645802 87.550110 -22.225430 -1.220687 0.774668 9.506715 -0.940211 1.069207 -1.059093 -5.115772 1.090970 0.026821 7.295088 -9.004788 -9.008956 -1.423146 -0.059088 -0.769133 0.000000 0.000000 0.000000 1.941014 16.868993 3.246172 -72.110547 23.136837 2.940586 -1.127253 -68.374969 -0.002950 -2.129914 6.135271 -0.110635 -0.046962 0.030963 0.000000 0.000000 0.000000 0.000000 0.000000 0.000000 0.000000 2.615039 -1.704005 -0.665312 68.462532 5.964226 5.994165 179.918293 89.317955 179.992827 -1.058849 4.480580 -0.044921 -0.001937 -0.444019 0.000000 0.000000 0.000000 0.000000 0.000000 0.000000 0.000000 
-2.078443 15.798670 -0.549983 -46.026369 87.404573 -20.654774 -1.421668 0.803398 9.485220 -0.991418 1.096635 -1.073658 -5.160108 1.120013 -0.003418 7.243215 -8.914994 -8.939473 -1.446681 -0.061992 -0.748970 0.000000 0.000000 0.000000 1.818272 16.743536 3.221119 -72.354035 22.667149 3.084103 -1.141370 -68.078406 -0.002819 -2.097191 6.125678 -0.108741 -0.045933 0.032167 0.000000 0.000000 0.000000 0.000000 0.000000 0.000000 0.000000 2.643032 -1.641510 -0.677876 69.126594 5.879472 6.096105 179.939006 89.881001 179.992275 -1.132581 4.621373 -0.049412 -0.001800 -0.444326 0.000000 0.000000 0.000000 0.000000 0.000000 0.000000 0.000000 
-1.930361 15.795876 -0.559565 -45.749199 87.273728 -20.417290 -1.561322 0.816800 9.461744 -1.026679 1.109837 -1.085018 -5.193521 1.134590 -0.023410 7.162918 -8.821279 -8.857131 -1.468636 -0.064991 -0.725101 0.000000 0.000000 0.000000 1.697810 16.625367 3.188558 -72.613811 22.157750 3.233172 -1.152344 -67.825232 -0.002695 -2.039454 6.103048 -0.105244 -0.045188 0.034032 0.000000 0.000000 0.000000 0.000000 0.000000 0.000000 0.000000 2.642467 -1.591767 -0.693947 69.763312 5.817469 6.258061 -0.038975 89.483860 -0.008643 -1.194634 4.774360 -0.053807 -0.001684 -0.443839 0.000000 0.000000 0.000000 0.000000 0.000000 0.000000 0.000000 
-1.783757 15.795615 -0.570264 -46.345439 87.143521 -21.048011 -1.648748 0.819664 9.439112 -1.048391 1.113203 -1.093305 -5.217030 1.139089 -0.035518 7.059121 -8.721374 -8.761978 -1.489357 -0.068105 -0.697583 0.000000 0.000000 0.000000 1.580783 16.513745 3.148264 -72.890657 21.626072 3.377412 -1.158825 -67.636696 -0.002571 -1.951984 6.058633 -0.099844 -0.044711 0.036613 0.000000 0.000000 0.000000 0.000000 0.000000 0.000000 0.000000 2.618075 -1.548398 -0.711804 70.364728 5.771100 6.477810 -0.014756 88.789965 -0.008485 -1.239050 4.937426 -0.057604 -0.001626 -0.442573 0.000000 0.000000 0.000000 0.000000 0.000000 0.000000 0.000000 
-1.638825 15.797605 -0.581909 -47.374542 87.004696 -22.109682 -1.698622 0.816499 9.420594 -1.060082 1.110882 -1.098363 -5.231741 1.137699 -0.041396 6.938644 -8.615539 -8.656206 -1.509247 -0.071316 -0.667155 0.000000 0.000000 0.000000 1.473714 16.409731 3.100655 -73.185359 21.079840 3.512984 -1.160085 -67.524056 -0.002449 -1.833560 5.984590 -0.092438 -0.044479 0.039963 0.000000 0.000000 0.000000 0.000000 0.000000 0.000000 0.000000 2.577430 -1.507475 -0.729690 70.923186 5.732057 6.749073 0.009800 88.054968 -0.008621 -1.262059 5.107213 -0.060504 -0.001652 -0.440586 0.000000 0.000000 0.000000 0.000000 0.000000 0.000000 0.000000 
-1.495720 15.801660 -0.594190 -48.449074 86.852170 -23.216952 -1.727805 0.811288 9.409333 -1.065768 1.106617 -1.100048 -5.239191 1.134236 -0.042561 6.809252 -8.504849 -8.542879 -1.528902 -0.074605 -0.634838 0.000000 0.000000 0.000000 1.384316 16.314544 3.046515 -73.495920 20.521204 3.642700 -1.155913 -67.491917 -0.002329 -1.686050 5.876043 -0.083132 -0.044461 0.044108 0.000000 0.000000 0.000000 0.000000 0.000000 0.000000 0.000000 2.530206 -1.466108 -0.745886 71.433258 5.690659 7.062132 0.034781 87.297638 -0.008578 -1.262365 5.279840 -0.062403 -0.001767 -0.437959 0.000000 0.000000 0.000000 0.000000 0.000000 0.000000 0.000000 
-1.354679 15.807644 -0.606722 -49.339756 86.685886 -24.142153 -1.749848 0.806944 9.408690 -1.068780 1.103290 -1.098070 -5.241199 1.131669 -0.040197 6.678814 -8.391145 -8.425879 -1.548991 -0.077946 -0.601902 0.000000 0.000000 0.000000 1.321282 16.229833 2.987050 -73.818718 19.946613 3.774234 -1.146580 -67.538511 -0.002212 -1.515110 5.731688 -0.072521 -0.044611 0.049046 0.000000 0.000000 0.000000 0.000000 0.000000 0.000000 0.000000 2.486563 -1.422489 -0.758911 71.891158 5.636479 7.403104 0.059803 86.538449 -0.008357 -1.238901 5.450213 -0.063003 -0.002004 -0.434787 0.000000 0.000000 0.000000 0.000000 0.000000 0.000000 0.000000 
